<svg xmlns="http://www.w3.org/2000/svg" viewBox="0 0 101.26 89.91"><title>&#x8D44;&#x6E90; 108</title><path d="M2.05 11C1.37 7.43.74 4.17 0 .32h6.43C15.19.5 24-.08 32.68 1c18.3 2.34 32 18.49 32.07 36.91.09 16-.06 31.92.08 47.88 0 3.14-.78 4.41-4 4a54.87 54.87 0 0 0-6.46 0c-.08-1.67-.21-3.06-.21-4.45 0-15.36.05-30.72 0-46.08C54 22.7 42.19 11 25.62 11z" fill="#133157"/><path d="M47 89.59H36.51v-4.41-45c0-7.71-3.78-11.52-11.47-11.6-5.52 0-11-.09-16.57.05-2.37.06-3.52-.69-3.76-3.14-.21-2.25-.8-4.47-1.3-7.12A30.28 30.28 0 0 1 6.57 18c6.61 0 13.21-.07 19.82 0 11.87.12 20.7 9 20.73 20.82.05 15.72 0 31.44 0 47.16 0 1.09-.12 2.15-.12 3.61z" fill="#133157"/><path d="M101.26 0a72.13 72.13 0 0 1-1.59 9 3.88 3.88 0 0 1-3 1.94c-6.35.19-12.71-.07-19.06.16-3.91.14-7.79.95-11.7 1.33a3.87 3.87 0 0 1-2.82-.65C61 9.61 59.2 7.26 57 4.66 71.22-2.63 86.18 1.59 101.26 0zM67.77 19c10.11-2 20-.65 30.24-1a82 82 0 0 1-1.85 8.89c-.25.78-1.93 1.56-3 1.58-7.29.13-14.59.07-22.26.07C70 25.8 69 22.68 67.77 19z" fill="#fcb51f"/></svg>